<svg width="22" height="27" viewBox="0 0 22 27" fill="none" xmlns="http://www.w3.org/2000/svg">
<g clip-path="url(#clip0)">
<rect width="22" height="27" fill="white"/>
<g filter="url(#filter0_d)">
<rect width="22.1786" height="26" fill="#C73737"/>
</g>
<path d="M6.7998 13.4971V15H5.9209V10.7344H7.58496C7.90527 10.7344 8.18652 10.793 8.42871 10.9102C8.67285 11.0273 8.86035 11.1943 8.99121 11.4111C9.12207 11.626 9.1875 11.8711 9.1875 12.1465C9.1875 12.5645 9.04395 12.8945 8.75684 13.1367C8.47168 13.377 8.07617 13.4971 7.57031 13.4971H6.7998ZM6.7998 12.7852H7.58496C7.81738 12.7852 7.99414 12.7305 8.11523 12.6211C8.23828 12.5117 8.2998 12.3555 8.2998 12.1523C8.2998 11.9434 8.23828 11.7744 8.11523 11.6455C7.99219 11.5166 7.82227 11.4502 7.60547 11.4463H6.7998V12.7852ZM9.79395 15V10.7344H11.1064C11.4814 10.7344 11.8164 10.8193 12.1113 10.9893C12.4082 11.1572 12.6396 11.3975 12.8057 11.71C12.9717 12.0205 13.0547 12.374 13.0547 12.7705V12.9668C13.0547 13.3633 12.9727 13.7158 12.8086 14.0244C12.6465 14.333 12.417 14.5723 12.1201 14.7422C11.8232 14.9121 11.4883 14.998 11.1152 15H9.79395ZM10.6729 11.4463V14.2939H11.0977C11.4414 14.2939 11.7041 14.1816 11.8857 13.957C12.0674 13.7324 12.1602 13.4111 12.1641 12.9932V12.7676C12.1641 12.334 12.0742 12.0059 11.8945 11.7832C11.7148 11.5586 11.4521 11.4463 11.1064 11.4463H10.6729ZM16.2627 13.2568H14.5752V15H13.6963V10.7344H16.4736V11.4463H14.5752V12.5479H16.2627V13.2568Z" fill="white"/>
</g>
<defs>
<filter id="filter0_d" x="-1" y="0" width="24.1786" height="29" filterUnits="userSpaceOnUse" color-interpolation-filters="sRGB">
<feFlood flood-opacity="0" result="BackgroundImageFix"/>
<feColorMatrix in="SourceAlpha" type="matrix" values="0 0 0 0 0 0 0 0 0 0 0 0 0 0 0 0 0 0 127 0"/>
<feOffset dy="2"/>
<feGaussianBlur stdDeviation="0.5"/>
<feColorMatrix type="matrix" values="0 0 0 0 0 0 0 0 0 0 0 0 0 0 0 0 0 0 0.25 0"/>
<feBlend mode="normal" in2="BackgroundImageFix" result="effect1_dropShadow"/>
<feBlend mode="normal" in="SourceGraphic" in2="effect1_dropShadow" result="shape"/>
</filter>
<clipPath id="clip0">
<rect width="22" height="27" fill="white"/>
</clipPath>
</defs>
</svg>
