<svg width="21" height="24" viewBox="0 0 21 24" fill="none" xmlns="http://www.w3.org/2000/svg">
<path d="M20.6211 5.96692L15.6434 0.229407C15.3787 -0.0764689 14.9484 -0.0764689 14.6828 0.229407L12.3659 2.89668L12.364 2.89773L2.00293 14.8446C1.64362 15.2601 1.51535 15.8186 1.49261 15.9251L0.0189533 23.0323C-0.0365364 23.2995 0.0316886 23.5762 0.199067 23.7693C0.32824 23.9175 0.501986 24 0.679371 24C0.732131 24 0.784892 23.9906 0.837652 23.9781L7.00246 22.2796C7.08979 22.2545 7.54644 22.1178 7.88484 21.7994C8.11225 21.5791 15.2431 13.3006 18.3014 9.74495H18.3023L20.6211 7.07454C20.7493 6.92735 20.8203 6.72795 20.8203 6.52021C20.8203 6.31247 20.7484 6.11307 20.6211 5.96692ZM12.8462 4.55968L13.7222 5.56918L14.3753 6.32186L4.73102 17.4399L3.20187 15.6777L12.8462 4.55968ZM1.94563 20.4788L2.6206 17.2227L5.87993 20.9778L3.05542 21.7566L1.94563 20.4788ZM7.24443 20.3368L5.69163 18.5464L15.3341 7.42948L16.8632 9.19271C13.2591 13.38 8.3424 19.083 7.24443 20.3368Z" fill="white"/>
</svg>
